<svg xmlns="http://www.w3.org/2000/svg" xmlns:xlink="http://www.w3.org/1999/xlink" width="20" height="20" viewBox="0 0 20 20">
    <defs>
        <path id="a" d="M15.406 2.636c1.243.845 1.734 2.543 1.734 5.96 0 3.416-.491 5.113-1.734 5.958-.99.693-3.2 1.098-6.825 1.098-2.745 0-4.796-.231-5.93-.643C.88 14.395 0 12.792 0 8.595c0-4.196.881-5.8 2.65-6.414 1.135-.411 3.186-.643 5.93-.643 3.62 0 5.837.405 6.826 1.098zM14.345 13.42c1.04-.686 1.4-2.058 1.408-4.825 0-2.766-.368-4.139-1.408-4.825-.831-.563-2.73-.888-5.764-.888-2.297 0-4.067.188-5.013.52C2.088 3.9 1.394 5.2 1.394 8.595c0 3.395.693 4.695 2.174 5.193.946.333 2.716.52 5.013.52 3.033 0 4.933-.325 5.764-.888zm4.261-7.382c.874.968 1.387 2.608 1.394 5.41 0 3.417-.773 5.114-2.015 5.959-.99.693-2.925 1.098-6.551 1.098-2.745 0-4.515-.231-5.649-.643a3.606 3.606 0 0 1-1.235-.693h6.884c3.04 0 4.658-.325 5.49-.889 1.04-.679 1.682-2.058 1.682-4.825V6.038zM11.26 9.137l-3.582 1.842c-.585.31-1.062-.036-1.062-.477V6.71c0-.578.477-.809 1.062-.477l3.582 1.842c.434.318.39.751 0 1.062z"/>
    </defs>
    <g fill-rule="evenodd">
        <use fill-rule="nonzero" xlink:href="#a"/>
    </g>
</svg>
